:SAMPLES-PER-SECOND 30
:FULLY-SPECIFIED
:DEGREES
199
root  -20.8708 39.207 0.555421 16.8621 89.1159 24.5657
RightUpLeg  9.04619 -9.58042 1.00237
RightLeg  16.8589 -1.82029 0.991016
RightFoot  -16.2574 -0.326829 -5.04961
RightToes  6.35927e-011 1.30204e-014 -6.03759e-014
Spine  5.76234 0.926535 13.1895
Spine1  13.3438 3.70581 -5.76123
HEad  -7.79864 -3.5324 -3.03404
LeftShoulder1  -0.613443 5.17547 -30.5407
LeftArm  -18.8689 17.0982 -29.0076
LeftForeArm  103.45 -77.2728 -121.481
LeftHand  -0.0963368 0.942754 2.41312
RightShoulder  -0.650979 -5.36817 28.2111
RightArm  -6.11136 -15.8702 37.9181
RightForeArm  104.818 72.8895 138.346
RightHand  -0.343267 4.36746 -4.36124
LeftUpLeg  -17.7625 -1.09814 2.91401
LeftLeg  24.9413 -4.52105 -1.96492
LeftFoot  -2.16901 0.485531 -5.88241
LeftToes  -7.16024e-010 4.79583e-011 -5.98286e-011
200
root  -19.6656 39.1443 0.655349 52.4993 89.3509 60.5023
RightUpLeg  12.4563 -9.73215 0.368881
RightLeg  14.9238 -2.14932 1.25361
RightFoot  -16.978 -0.359233 -4.95574
RightToes  6.35927e-011 1.30204e-014 -6.03759e-014
Spine  5.22404 1.02458 12.2518
Spine1  13.9889 3.71089 -6.13175
HEad  -7.90886 -3.47846 -2.66811
LeftShoulder1  -0.623708 5.20689 -30.4653
LeftArm  -19.3665 17.6055 -28.9225
LeftForeArm  109.21 -76.7596 -125.593
LeftHand  -0.108878 1.06787 2.80991
RightShoulder  -0.647574 -5.35654 28.2439
RightArm  -5.92892 -15.5365 38.7118
RightForeArm  104.923 73.0249 137.997
RightHand  -0.276969 3.92516 -3.71275
LeftUpLeg  -16.6622 0.941242 1.59675
LeftLeg  14.2764 -5.21485 -1.24361
LeftFoot  -1.43824 0.625626 -7.10767
LeftToes  -7.16024e-010 4.79583e-011 -5.98286e-011
201
root  -18.4408 38.993 0.700008 113.465 89.0463 121.723
RightUpLeg  15.6063 -9.9053 -0.114173
RightLeg  13.558 -2.74903 1.37187
RightFoot  -17.973 -0.400358 -4.81829
RightToes  6.35927e-011 1.30204e-014 -6.03759e-014
Spine  4.67364 0.834713 11.3864
Spine1  14.5874 3.4667 -6.43523
HEad  -8.07796 -3.36863 -2.44642
LeftShoulder1  -0.647271 5.27397 -30.4063
LeftArm  -19.544 18.2045 -28.8621
LeftForeArm  113.889 -76.1821 -129.24
LeftHand  -0.131508 1.266 3.56183
RightShoulder  -0.645596 -5.34413 28.3689
RightArm  -5.81818 -15.2717 39.5113
RightForeArm  105.6 73.1147 137.854
RightHand  -0.20139 3.23225 -2.94855
LeftUpLeg  -15.7103 2.20223 0.179076
LeftLeg  5.57564 -3.8429 -0.419373
LeftFoot  -0.436696 0.7736 -8.07721
LeftToes  -7.16024e-010 4.79583e-011 -5.98286e-011
202
root  -17.1764 38.6834 0.68134 165.686 88.0447 173.915
RightUpLeg  18.0564 -10.2516 -0.0800381
RightLeg  13.2559 -3.63255 1.55178
RightFoot  -19.8906 -0.429523 -3.96831
RightToes  6.35927e-011 1.30204e-014 -6.03759e-014
Spine  3.91434 0.353968 11.1661
Spine1  14.9133 2.94991 -6.75809
HEad  -8.28791 -3.51822 -2.5298
LeftShoulder1  -0.672698 5.34468 -30.3814
LeftArm  -19.6576 18.6186 -29.0019
LeftForeArm  115.949 -75.8799 -130.888
LeftHand  -0.153618 1.39452 4.31244
RightShoulder  -0.670289 -5.39789 28.6888
RightArm  -5.65272 -15.13 40.0019
RightForeArm  106.47 73.1378 137.922
RightHand  -0.161208 2.5711 -2.56179
LeftUpLeg  -16.1501 1.30561 -0.607954
LeftLeg  2.01239 -0.685737 -0.247308
LeftFoot  -0.48198 0.833444 -8.71711
LeftToes  -7.16024e-010 4.79583e-011 -5.98286e-011
203
root  -15.8173 38.3235 0.696526 168.089 87.7236 176.533
RightUpLeg  20.6084 -10.8787 -0.575935
RightLeg  13.6256 -3.09552 1.68141
RightFoot  -21.8178 -0.394388 -2.68068
RightToes  6.35927e-011 1.30204e-014 -6.03759e-014
Spine  3.44732 0.507982 10.7047
Spine1  15.3252 3.16847 -6.95262
HEad  -8.17521 -3.86678 -1.86268
LeftShoulder1  -0.696589 5.40951 -30.3904
LeftArm  -19.7422 18.6314 -29.352
LeftForeArm  116.131 -75.9217 -130.765
LeftHand  -0.165122 1.50645 4.77254
RightShoulder  -0.711286 -5.49249 29.0916
RightArm  -5.32559 -15.4657 40.0033
RightForeArm  106.856 73.0618 138.186
RightHand  -0.182737 2.41907 -2.91499
LeftUpLeg  -16.6698 1.09532 -1.27278
LeftLeg  3.07095 1.33211 -0.282788
LeftFoot  -0.327224 0.786394 -8.11994
LeftToes  -7.16024e-010 4.79583e-011 -5.98286e-011
204
root  -14.354 37.9929 0.730691 146.191 88.4824 154.807
RightUpLeg  22.9756 -11.6353 -1.86603
RightLeg  14.6177 -1.12339 1.49234
RightFoot  -22.8939 -0.323919 -1.65676
RightToes  6.35927e-011 1.30204e-014 -6.03759e-014
Spine  2.7983 1.35527 9.93988
Spine1  16.0331 4.20137 -7.26188
HEad  -8.24556 -4.23945 -0.886985
LeftShoulder1  -0.746588 5.54279 -30.4499
LeftArm  -19.6675 18.4787 -29.5518
LeftForeArm  116.305 -75.9759 -130.595
LeftHand  -0.166771 1.66675 5.00876
RightShoulder  -0.730003 -5.53139 29.3369
RightArm  -4.75127 -16.3052 39.5955
RightForeArm  106.437 72.955 138.411
RightHand  -0.230247 2.44011 -3.61463
LeftUpLeg  -17.1933 1.78817 -2.0347
LeftLeg  6.91508 1.8442 -0.170244
LeftFoot  2.36312 0.557149 -4.89466
LeftToes  -7.16024e-010 4.79583e-011 -5.98286e-011
205
root  -12.8428 37.7065 0.755725 84.4989 88.5228 93.3802
RightUpLeg  24.9761 -11.8723 -3.88006
RightLeg  16.5689 1.25077 0.941846
RightFoot  -23.7379 -0.139742 0.146997
RightToes  6.35927e-011 1.30204e-014 -6.03759e-014
Spine  2.36298 2.33977 8.2614
Spine1  16.63 5.3504 -7.54607
HEad  -8.79902 -4.37688 -0.123905
LeftShoulder1  -0.822855 5.7456 -30.5363
LeftArm  -19.343 18.6203 -29.2798
LeftForeArm  117.184 -75.8252 -131.36
LeftHand  -0.174216 1.72916 5.32309
RightShoulder  -0.726144 -5.51535 29.4277
RightArm  -3.87582 -17.1685 38.978
RightForeArm  105.195 73.0979 137.837
RightHand  -0.255669 2.6935 -3.88729
LeftUpLeg  -17.9407 2.61641 -3.46775
LeftLeg  12.3861 1.60911 0.343034
LeftFoot  6.74116 -0.0756253 0.209361
LeftToes  -7.16024e-010 4.79583e-011 -5.98286e-011
206
root  -11.3688 37.4279 0.740847 76.0537 86.8163 85.4628
RightUpLeg  26.1637 -11.3365 -6.2802
RightLeg  20.4789 2.57878 0.822321
RightFoot  -24.7279 0.398845 4.77105
RightToes  6.35927e-011 1.30204e-014 -6.03759e-014
Spine  2.63427 2.76105 5.51823
Spine1  16.6774 5.74284 -7.61352
HEad  -9.52633 -4.39996 0.207539
LeftShoulder1  -0.861635 5.84883 -30.5722
LeftArm  -18.7796 19.1124 -28.7185
LeftForeArm  117.528 -75.719 -131.828
LeftHand  -0.194473 1.58526 5.76956
RightShoulder  -0.734877 -5.53078 29.5855
RightArm  -2.81087 -17.7955 38.3574
RightForeArm  103.134 73.6042 136.076
RightHand  -0.272298 3.12234 -3.9455
LeftUpLeg  -18.7456 1.87193 -5.48915
LeftLeg  18.6749 2.04367 1.14651
LeftFoot  8.65586 -0.813842 4.38433
LeftToes  -7.16024e-010 4.79583e-011 -5.98286e-011
207
root  -9.97686 37.2111 0.673352 88.4441 85.3016 98.2083
RightUpLeg  25.1452 -11.1031 -8.88824
RightLeg  27.8994 3.03818 1.50297
RightFoot  -22.936 0.95521 11.236
RightToes  6.35927e-011 1.30204e-014 -6.03759e-014
Spine  3.08969 2.69551 2.94837
Spine1  16.322 5.55419 -7.82337
HEad  -10.0114 -4.57994 0.0305411
LeftShoulder1  -0.821358 5.74089 -30.5464
LeftArm  -18.0889 19.5759 -28.3166
LeftForeArm  116.27 -75.9779 -130.575
LeftHand  -0.210224 1.43289 6.03755
RightShoulder  -0.75848 -5.58192 29.8401
RightArm  -1.85564 -18.4251 37.8382
RightForeArm  100.914 74.1957 133.879
RightHand  -0.300509 3.33415 -4.24156
LeftUpLeg  -19.1185 0.250427 -7.35638
LeftLeg  24.255 3.16746 1.88635
LeftFoot  6.24942 -1.01172 6.28296
LeftToes  -7.16024e-010 4.79583e-011 -5.98286e-011
208
root  -8.67936 37.1997 0.58316 85.5699 84.2103 95.0621
RightUpLeg  20.454 -10.4449 -10.9861
RightLeg  38.9392 2.83459 2.18134
RightFoot  -14.4408 0.33664 15.3095
RightToes  6.35927e-011 1.30204e-014 -6.03759e-014
Spine  3.04909 2.87026 1.54672
Spine1  15.999 5.74491 -8.57592
HEad  -10.3088 -4.73745 -0.578336
LeftShoulder1  -0.759577 5.57161 -30.5694
LeftArm  -17.5139 19.7931 -28.2046
LeftForeArm  114.131 -76.4547 -128.157
LeftHand  -0.204941 1.48167 5.94479
RightShoulder  -0.761987 -5.58592 29.9383
RightArm  -1.1689 -19.0303 37.4228
RightForeArm  99.5274 74.5944 132.291
RightHand  -0.313222 3.1599 -4.4866
LeftUpLeg  -18.593 0.630856 -8.72909
LeftLeg  27.1776 3.42012 2.24766
LeftFoot  2.30845 -0.824292 6.74915
LeftToes  -7.16024e-010 4.79583e-011 -5.98286e-011
209
root  -7.50676 37.3167 0.451846 79.3358 83.0601 88.6461
RightUpLeg  13.6786 -8.78272 -12.7904
RightLeg  50.7259 2.66687 3.16983
RightFoot  -2.28987 -1.12958 14.3657
RightToes  6.35927e-011 1.30204e-014 -6.03759e-014
Spine  3.56073 2.94653 0.533804
Spine1  15.456 5.87102 -9.58534
HEad  -10.9095 -4.45547 -1.41543
LeftShoulder1  -0.74995 5.53703 -30.7207
LeftArm  -17.2671 19.927 -28.2105
LeftForeArm  112.582 -76.795 -126.279
LeftHand  -0.193596 1.59285 5.75491
RightShoulder  -0.737371 -5.52911 29.7376
RightArm  -0.668168 -19.08 37.1043
RightForeArm  99.123 74.8015 131.478
RightHand  -0.290101 2.98629 -4.24791
LeftUpLeg  -17.0102 1.40586 -10.07
LeftLeg  27.8482 3.66473 2.44911
LeftFoot  -0.376972 -0.652505 6.81086
LeftToes  -7.16024e-010 4.79583e-011 -5.98286e-011
210
root  -6.45528 37.4606 0.342973 69.6881 81.9978 78.928
RightUpLeg  6.5219 -6.09856 -13.6402
RightLeg  60.4232 2.56811 4.37604
RightFoot  4.81916 -1.58148 11.2369
RightToes  6.35927e-011 1.30204e-014 -6.03759e-014
Spine  4.15703 3.13259 -0.453036
Spine1  15.3945 5.94985 -10.279
HEad  -12.1008 -3.778 -2.27271
LeftShoulder1  -0.769228 5.57987 -30.89
LeftArm  -17.2614 20.0964 -28.3717
LeftForeArm  111.66 -76.9807 -125.172
LeftHand  -0.197428 1.54609 5.8062
RightShoulder  -0.714453 -5.48248 29.4294
RightArm  -0.306404 -18.4841 36.8995
RightForeArm  98.7642 74.8718 131.157
RightHand  -0.28645 2.98456 -4.19637
LeftUpLeg  -15.3167 2.28033 -10.9633
LeftLeg  27.9679 4.26016 2.80643
LeftFoot  -2.07216 -0.532543 6.71401
LeftToes  -7.16024e-010 4.79583e-011 -5.98286e-011
